PathFileType	4	(X/Y/Z)	Patient4_TMGait_0pt5_02_left_02.trc.trc
DataRate	CameraRate	NumFrames	NumMarkers	Units	OrigDataRate	OrigDataStartFrame	OrigNumFrames
77.348066298343	77.348066298343	5	33	mm	77.348066298343	89	       141
Frame#	Time	Sacral			L.Shoulder			Chest			R.Shoulder			Neck			R.ASIS			L.ASIS			R.Thigh.Superior			R.Thigh.Lateral			R.Thigh.Inferior			R.Patella			L.Thigh.Superior			L.Thigh.Lateral			L.Thigh.Inferior			L.Patella			L.Shank.Superior			L.Shank.Lateral			L.Shank.Inferior			R.Shank.Superior			R.Shank.Lateral			R.Shank.Inferior			R.Heel			R.Midfoot.Superior			R.Midfoot.Lateral			R.Toe			L.Heel			L.Midfoot.Lateral			L.Midfoot.Superior			L.Toe			L.Elbow			L.Wrist			R.Elbow			R.Wrist			
		X1	Y1	Z1	X2	Y2	Z2	X3	Y3	Z3	X4	Y4	Z4	X5	Y5	Z5	X6	Y6	Z6	X7	Y7	Z7	X8	Y8	Z8	X9	Y9	Z9	X10	Y10	Z10	X11	Y11	Z11	X12	Y12	Z12	X13	Y13	Z13	X14	Y14	Z14	X15	Y15	Z15	X16	Y16	Z16	X17	Y17	Z17	X18	Y18	Z18	X19	Y19	Z19	X20	Y20	Z20	X21	Y21	Z21	X22	Y22	Z22	X23	Y23	Z23	X24	Y24	Z24	X25	Y25	Z25	X26	Y26	Z26	X27	Y27	Z27	X28	Y28	Z28	X29	Y29	Z29	X30	Y30	Z30	X31	Y31	Z31	X32	Y32	Z32	X33	Y33	Z33	

89	3.027714285714	543.021799909899	1003.478648989679	494.673622306384	733.323351611433	1438.790813450044	341.881364621324	817.297076412060	1364.495492709524	511.766798415470	713.142034284675	1433.830188467017	677.582849723015	715.859353909447	1494.543164594356	494.036659847853	759.083652223768	939.852825283671	632.077122770009	767.942077459409	960.991406352315	358.706359506717	816.584547753673	746.566362679193	606.763949973957	736.964685923597	634.761267883645	658.030835651896	824.510354604088	587.247464003833	584.556268760449	830.663386059055	498.920340398220	590.077532612971	808.126367347959	742.151440544829	389.001570875308	728.024726373223	625.986255977088	319.345251805547	806.292646977120	543.273071150743	387.429613162680	799.629454126165	458.608583763482	387.744354227071	737.138728127843	397.126688531018	377.902474175046	607.492515068976	340.007677531047	315.804310683669	597.090603287788	215.175409082515	379.181263135578	807.822495402603	408.804092597063	595.621704310663	738.193457925450	300.640502698921	650.779930421926	790.985501782076	208.965196699910	591.899014241683	667.850406065788	42.010470982489	552.321335263709	836.178947907448	98.255521982175	596.961357672774	747.661559634166	36.000185172469	631.299159519600	955.257544267941	48.609486097182	629.373283688123	409.618005983605	127.567271041258	402.713326246564	480.046558989486	94.368725228522	327.287101809972	579.140388579851	119.149951814038	357.459829757744	676.132293340332	32.972630870458	335.458322351655	733.033853260092	1090.180737226906	210.566828665929	970.043373652002	987.338098376846	226.872496208185	616.746211433289	1093.742660131866	770.110350988068	680.908993811920	840.121019458184	773.624034531421	
90	3.040642857143	541.996999747016	1004.076781885720	497.694038802831	731.873565458065	1439.100567365952	343.789395312704	817.272623956919	1364.587238543087	512.908991354355	714.689812849711	1433.966264355468	679.738000365706	715.879438389450	1494.781910826874	496.186750037447	758.918596576836	940.344938714936	633.661244463559	766.355709985103	961.088628700731	360.250649378685	814.290926535100	745.790017511789	608.642187234484	733.720474818471	634.732404469650	659.746730963952	820.515086603119	586.549510129198	585.822454113497	825.857503032685	498.396745811848	590.998299396257	810.919291440752	744.683511236611	391.121884029657	734.790267781878	626.625533348401	321.034751107835	815.569833896979	545.639722884289	388.894874377711	810.077493651773	459.879569326042	388.776609784143	745.983365219218	398.355794598571	378.974731772739	614.354604607952	345.426118217426	317.096578752194	600.664130244540	220.522868584600	379.671764237497	802.683692681014	408.422754347635	596.526019952916	732.774382936057	300.408389722164	651.506215009586	785.027542048787	208.692488770619	592.279668520761	661.354192827082	41.985576126475	552.450186707574	829.701247409107	98.152590975204	597.108472118967	741.133796938568	35.933641315924	631.415733494795	948.765554017268	48.464448522937	629.496080826022	410.173082204825	139.881783352354	402.739136082443	479.395927036807	103.947519618508	327.283115842964	579.692726779587	124.059635449966	357.706084109494	672.554282785309	32.768346461239	335.505875602066	729.605499157995	1089.641085999701	214.108338326628	963.786932353775	979.485370183173	229.837893937276	623.992071399479	1092.543964890113	774.469491568523	697.653815275151	841.533533206034	776.983402470082	
91	3.053571428571	540.867630568221	1004.632729553061	500.606369522464	730.330169183016	1439.291976043904	345.498900935082	817.197265021724	1364.596986926597	513.833930710670	716.226273152139	1434.022893676532	681.679521502290	715.848624406287	1494.949510403288	498.129989371067	758.646821151792	940.746244845862	635.186463844873	764.691170066292	961.053846191827	361.710791087404	812.026175519400	745.055821762350	610.330838172968	730.638190850220	634.666812277914	661.382305873676	816.634641595170	585.863643065104	586.959491884466	821.188947249347	497.859202114233	591.849916674815	813.362534837602	747.289274904011	393.179635950693	741.104954104915	627.611248760026	322.487763797569	824.204939981749	548.375281965476	390.133572548181	820.000014264825	461.639553779426	389.617986515243	754.627203011106	399.964623227544	379.805210653491	621.302762316907	350.697423535792	318.217921968400	604.839563996400	225.735420374431	380.060154199441	797.668422296947	408.014820705523	597.339547948291	727.494371761744	300.170788836103	652.204849292290	779.130456386418	208.395169116269	592.594243159005	654.832217712569	41.976146306451	552.567336472116	823.215011126855	98.024381751158	597.217058674734	734.588360775029	35.872383381081	631.514641158287	942.265691044433	48.257960382200	629.594124614966	411.899149628087	151.086466348431	402.823524884595	480.008235653021	112.931983088738	327.257483541068	581.264788319314	128.949663722813	357.877714273127	670.504284240771	32.880376252642	335.271767080197	725.777400653408	1088.968302508561	217.500376478625	956.674808332183	971.056298379095	232.163252262868	631.640483819819	1091.447177763769	778.969187859771	714.758139443416	843.432188604331	780.341533857796	
92	3.066500000000	539.657098957859	1005.161997095955	503.419033851148	728.758710664038	1439.386555601604	347.014802717075	817.083909163219	1364.539672880154	514.568799438696	717.737094035186	1434.037796864974	683.394501099719	715.798020985139	1495.071976885509	499.854147852442	758.279208069530	941.066230051500	636.671453285487	762.944209963000	960.944584639187	363.101271424413	809.845957668153	744.388421047821	611.825399034033	727.755813278637	634.570277561900	662.907168988865	812.934832500826	585.202130389531	587.962174672906	816.724501789446	497.309748023263	592.608029134813	815.416069761138	749.965881027916	395.169586025979	746.858450628244	628.954733188829	323.709260939160	832.089798516756	551.451825053541	391.130934312676	829.292414199287	463.876285607229	390.223195682383	762.994849123568	401.926303151027	380.364571863653	628.291174397059	355.615561481974	319.131475937694	609.732004795392	230.550577696692	380.299725989807	792.831112108622	407.585819758186	598.042374533797	722.389766302214	299.944923308162	652.861399669119	773.318552391934	208.080216988758	592.835347573050	648.293989269616	41.981211871328	552.674751955038	816.725784856853	97.885294577333	597.292007073160	728.037079569693	35.821788487600	631.601091017063	935.766089353835	48.016336728338	629.675299857161	414.973996471531	160.587458751197	402.947252920400	482.124896046291	120.818563720872	327.178554188233	584.108436106201	133.532954719806	357.899678473694	670.432831568032	33.316512584845	334.688501375789	721.577234432098	1088.199654442547	220.755060908026	948.642729454057	962.062900451877	233.833818553759	639.657087396485	1090.504279615041	783.548766630902	732.162814965529	845.874059345961	783.639631803206	
93	3.079428571429	538.390050023096	1005.680857322602	506.150525217724	727.207630706147	1439.406532280560	348.349816159238	816.944757777850	1364.433055786075	515.142171269807	719.218760856671	1434.051300403680	684.880593254021	715.754855770305	1495.173368005947	501.358053959496	757.832785318536	941.313829592611	638.119392130779	761.104788754758	960.827846498462	364.430211710883	807.778269882915	743.792255066852	613.127157493500	725.075574317476	634.444819837911	664.290664188045	809.445141399279	584.569724226458	588.824791083175	812.494954265948	496.747975652550	593.244260323233	817.065251504192	752.708458172626	397.068988110546	751.972669312047	630.643639479029	324.709482596717	839.156833830172	554.821943738416	391.879423453030	837.877408106971	466.561469492946	390.567272577331	771.041636734020	404.197194275739	380.638582550356	635.306838500570	359.968936853086	319.806337739069	615.479266688966	234.709745654979	380.346679527088	788.195663649254	407.140217724719	598.614633570963	717.470828167054	299.742482738927	653.456597636829	767.601307396671	207.753871598825	592.995567402221	641.746595059514	41.998116300437	552.772382805870	810.237719165753	97.746611313306	597.336829547497	721.489222514957	35.785682110849	631.679143607576	929.272534277060	47.762239929872	629.745284711437	419.579583387510	167.852428773878	403.070963038352	485.986207817763	127.139994129352	327.003589037502	588.483959209526	137.512378096102	357.703347498231	672.765354087924	34.046433607010	333.712471956348	717.053348139045	1087.378284153439	223.878874179973	939.639947319848	952.544526311637	234.861570842510	647.980284443653	1089.770812238671	788.146639491807	749.807266489922	848.928262077057	786.815738621172	
